<?xml version="1.0" encoding="UTF-8" standalone="no"?>
<!DOCTYPE svg PUBLIC "-//W3C//DTD SVG 1.1//EN" "http://www.w3.org/Graphics/SVG/1.1/DTD/svg11.dtd">
<svg width="100%" height="100%" viewBox="0 0 900 900" version="1.1" xmlns="http://www.w3.org/2000/svg" xmlns:xlink="http://www.w3.org/1999/xlink" xml:space="preserve" xmlns:serif="http://www.serif.com/" style="fill-rule:evenodd;clip-rule:evenodd;stroke-linejoin:round;stroke-miterlimit:2;">
    <g transform="matrix(1,0,0,1,-173.679,-85.5982)">
        <g transform="matrix(1.01827,0,0,1.21014,-542.827,-1184.81)">
            <ellipse cx="1145.58" cy="1421.66" rx="441.926" ry="371.857" style="fill:rgb(18,18,18);"/>
        </g>
        <g transform="matrix(708.333,0,0,708.333,381.429,801.223)">
            <path d="M0.08,-0.75L0.48,-0.75L0.584,-0.64L0.584,-0.46L0.53,-0.403L0.604,-0.326L0.604,-0.11L0.5,-0L0.08,-0L0.08,-0.08L0.15,-0.08L0.15,-0.67L0.08,-0.67L0.08,-0.75ZM0.242,-0.356L0.242,-0.086L0.46,-0.086L0.518,-0.145L0.518,-0.291L0.455,-0.356L0.242,-0.356ZM0.242,-0.664L0.242,-0.436L0.44,-0.436L0.498,-0.495L0.498,-0.605L0.441,-0.664L0.242,-0.664Z" style="fill:rgb(242,242,242);fill-rule:nonzero;"/>
        </g>
    </g>
</svg>
