<svg id="Layer_1" data-name="Layer 1" xmlns="http://www.w3.org/2000/svg" viewBox="0 0 500 500"><defs><style>.cls-1{fill:#101010;}.cls-2{isolation:isolate;}.cls-3{fill:#f0efef;}</style></defs><title>favicon</title><rect class="cls-1" width="500" height="500"/><g class="cls-2"><path class="cls-3" d="M325.35,183.45A77.17,77.17,0,0,1,317,218.87a74.59,74.59,0,0,1-23.49,27.3,75.19,75.19,0,0,1,31.86,62v66.87a76.29,76.29,0,0,1-5.67,29.39A74.58,74.58,0,0,1,303.21,429q-22.68,22.65-54,22.65v-.54H173.07V55.83h76.14q31.86,0,54,22.17t22.14,54.07Zm-28.08-51.3q0-20.59-14-34.42a46.72,46.72,0,0,0-34-13.82H201.15v148h48.06a46.72,46.72,0,0,0,34-13.82q14-13.81,14-34.42Zm0,175.7A47.87,47.87,0,0,0,249.21,260H201.15V423h48.06a46.4,46.4,0,0,0,34-14q14-14,14-34.45Z"/></g></svg>